<svg width="21" height="20" viewBox="0 0 21 20" fill="none" xmlns="http://www.w3.org/2000/svg">
<path fill-rule="evenodd" clip-rule="evenodd" d="M8.78631 2.70833H12.2137C13.7451 2.70832 14.9582 2.7083 15.9075 2.83594C16.8845 2.9673 17.6753 3.24406 18.299 3.8677C18.9226 4.49133 19.1994 5.28212 19.3307 6.25914C19.4583 7.20849 19.4583 8.42152 19.4583 9.95299V10.047C19.4583 11.5785 19.4583 12.7915 19.3307 13.7408C19.1994 14.7179 18.9226 15.5087 18.299 16.1323C17.6753 16.7559 16.8845 17.0327 15.9075 17.164C14.9582 17.2917 13.7451 17.2917 12.2137 17.2917H8.78631C7.25485 17.2917 6.04182 17.2917 5.09247 17.164C4.11545 17.0327 3.32466 16.7559 2.70103 16.1323C2.07739 15.5087 1.80063 14.7179 1.66927 13.7408C1.54163 12.7915 1.54164 11.5785 1.54166 10.047V9.95298C1.54164 8.42151 1.54163 7.20849 1.66927 6.25914C1.80063 5.28212 2.07739 4.49133 2.70103 3.8677C3.32466 3.24406 4.11545 2.9673 5.09247 2.83594C6.04182 2.7083 7.25484 2.70832 8.78631 2.70833ZM5.25903 4.07479C4.42062 4.18752 3.93758 4.39891 3.58491 4.75158C3.23223 5.10426 3.02084 5.58729 2.90812 6.4257C2.79298 7.28209 2.79166 8.41098 2.79166 10C2.79166 11.589 2.79298 12.7179 2.90812 13.5743C3.02084 14.4127 3.23223 14.8957 3.58491 15.2484C3.93758 15.6011 4.42062 15.8125 5.25903 15.9252C6.11542 16.0403 7.24431 16.0417 8.83332 16.0417H12.1667C13.7557 16.0417 14.8846 16.0403 15.7409 15.9252C16.5794 15.8125 17.0624 15.6011 17.4151 15.2484C17.7677 14.8957 17.9791 14.4127 18.0919 13.5743C18.207 12.7179 18.2083 11.589 18.2083 10C18.2083 8.41098 18.207 7.28209 18.0919 6.4257C17.9791 5.58729 17.7677 5.10426 17.4151 4.75158C17.0624 4.39891 16.5794 4.18752 15.7409 4.07479C14.8846 3.95966 13.7557 3.95833 12.1667 3.95833H8.83332C7.24431 3.95833 6.11542 3.95966 5.25903 4.07479ZM5.01985 6.26655C5.24083 6.00137 5.63493 5.96555 5.90011 6.18652L7.69918 7.68576C8.47665 8.33365 9.01643 8.78201 9.47214 9.0751C9.91328 9.35882 10.2124 9.45406 10.5 9.45406C10.7875 9.45406 11.0867 9.35882 11.5278 9.0751C11.9835 8.78201 12.5233 8.33364 13.3008 7.68576L15.0999 6.18652C15.365 5.96555 15.7591 6.00137 15.9801 6.26655C16.2011 6.53172 16.1653 6.92582 15.9001 7.1468L14.0697 8.67214C13.3311 9.28769 12.7324 9.7866 12.204 10.1264C11.6536 10.4804 11.1176 10.7041 10.5 10.7041C9.88243 10.7041 9.34638 10.4804 8.79597 10.1264C8.26759 9.7866 7.66892 9.28769 6.93029 8.67215L5.09987 7.1468C4.8347 6.92582 4.79887 6.53172 5.01985 6.26655Z" fill="#121212" fill-opacity="0.6"/>
</svg>
