<svg width="20" height="20" viewBox="0 0 20 20" fill="none" xmlns="http://www.w3.org/2000/svg">
<path d="M5.83333 13.5834C7.66667 13.5834 9.16667 12.0584 9.16667 10.2084C9.16667 9.24169 8.69167 8.32502 7.74167 7.55002C6.79167 6.77502 6.075 5.62502 5.83333 4.41669C5.59167 5.62502 4.88333 6.78335 3.925 7.55002C2.96667 8.31669 2.5 9.25002 2.5 10.2084C2.5 12.0584 4 13.5834 5.83333 13.5834Z" stroke="#122B49" stroke-width="2" stroke-linecap="round" stroke-linejoin="round"/>
<path d="M10.4667 5.5C11.0398 4.58427 11.4461 3.5742 11.6667 2.51666C12.0833 4.6 13.3333 6.6 15 7.93333C16.6667 9.26666 17.5 10.85 17.5 12.5167C17.5048 13.6686 17.1674 14.796 16.5307 15.7559C15.8939 16.7158 14.9865 17.4651 13.9234 17.9087C12.8604 18.3524 11.6895 18.4703 10.5593 18.2477C9.4291 18.0251 8.39044 17.4719 7.575 16.6583" stroke="#122B49" stroke-width="2" stroke-linecap="round" stroke-linejoin="round"/>
</svg>
