<svg width="35" height="36" viewBox="0 0 35 36" fill="none" xmlns="http://www.w3.org/2000/svg">
<g clip-path="url(#clip0_33_339)">
<path d="M33.3368 10.9807L29.9368 14.7005L27.3868 7.81888C27.1464 7.1146 26.7165 6.50658 26.1538 6.07495C25.5912 5.64332 24.9222 5.40835 24.235 5.40101H11.9168C11.2241 5.3836 10.543 5.59818 9.96486 6.01601C9.38668 6.43384 8.93899 7.03498 8.68175 7.7389L6.13685 14.7005L2.73685 10.9807" stroke="#7A7A7A" stroke-width="2" stroke-linecap="round" stroke-linejoin="round"/>
<path d="M9.53683 22.1403H9.55384" stroke="#7A7A7A" stroke-width="2" stroke-linecap="round" stroke-linejoin="round"/>
<path d="M26.5368 22.1403H26.5538" stroke="#7A7A7A" stroke-width="2" stroke-linecap="round" stroke-linejoin="round"/>
<path d="M29.9368 14.7014H6.13685C4.25908 14.7014 2.73685 16.3668 2.73685 18.4212V25.8608C2.73685 27.9152 4.25908 29.5806 6.13685 29.5806H29.9368C31.8146 29.5806 33.3368 27.9152 33.3368 25.8608V18.4212C33.3368 16.3668 31.8146 14.7014 29.9368 14.7014Z" stroke="#7A7A7A" stroke-width="2" stroke-linecap="round" stroke-linejoin="round"/>
<path d="M6.13684 29.5802V33.3" stroke="#7A7A7A" stroke-width="2" stroke-linecap="round" stroke-linejoin="round"/>
<path d="M29.9369 29.5802V33.3" stroke="#7A7A7A" stroke-width="2" stroke-linecap="round" stroke-linejoin="round"/>
</g>
<defs>
<clipPath id="clip0_33_339">
<rect width="34" height="36" fill="white" transform="translate(0.5)"/>
</clipPath>
</defs>
</svg>
