<svg width="20" height="20" viewBox="0 0 20 20" fill="none" xmlns="http://www.w3.org/2000/svg">
<path d="M16.6667 7.49998V4.99998C16.6667 4.55795 16.4911 4.13403 16.1785 3.82147C15.8659 3.50891 15.442 3.33331 15 3.33331H4.99999C4.55797 3.33331 4.13404 3.50891 3.82148 3.82147C3.50892 4.13403 3.33333 4.55795 3.33333 4.99998V7.49998" stroke="#122B49" stroke-width="2" stroke-linecap="round" stroke-linejoin="round"/>
<path d="M1.66667 9.16667V13.3333C1.66667 13.7754 1.84227 14.1993 2.15483 14.5118C2.46739 14.8244 2.89131 15 3.33334 15H16.6667C17.1087 15 17.5326 14.8244 17.8452 14.5118C18.1577 14.1993 18.3333 13.7754 18.3333 13.3333V9.16667C18.3333 8.72464 18.1577 8.30072 17.8452 7.98816C17.5326 7.6756 17.1087 7.5 16.6667 7.5C16.2246 7.5 15.8007 7.6756 15.4882 7.98816C15.1756 8.30072 15 8.72464 15 9.16667V10.8333H5.00001V9.16667C5.00001 8.72464 4.82441 8.30072 4.51185 7.98816C4.19929 7.6756 3.77537 7.5 3.33334 7.5C2.89131 7.5 2.46739 7.6756 2.15483 7.98816C1.84227 8.30072 1.66667 8.72464 1.66667 9.16667Z" stroke="#122B49" stroke-width="2" stroke-linecap="round" stroke-linejoin="round"/>
<path d="M3.33333 15V16.6667" stroke="#122B49" stroke-width="2" stroke-linecap="round" stroke-linejoin="round"/>
<path d="M16.6667 15V16.6667" stroke="#122B49" stroke-width="2" stroke-linecap="round" stroke-linejoin="round"/>
<path d="M10 3.33331V10.8333" stroke="#122B49" stroke-width="2" stroke-linecap="round" stroke-linejoin="round"/>
</svg>
