<svg width="35" height="34" viewBox="0 0 35 34" fill="none" xmlns="http://www.w3.org/2000/svg">
<path d="M26.375 29.7499C29.1134 29.7499 31.3334 27.53 31.3334 24.7916C31.3334 22.0532 29.1134 19.8333 26.375 19.8333C23.6366 19.8333 21.4167 22.0532 21.4167 24.7916C21.4167 27.53 23.6366 29.7499 26.375 29.7499Z" stroke="#7A7A7A" stroke-width="2" stroke-linecap="round" stroke-linejoin="round"/>
<path d="M7.95836 29.7499C10.6968 29.7499 12.9167 27.53 12.9167 24.7916C12.9167 22.0532 10.6968 19.8333 7.95836 19.8333C5.21995 19.8333 3.00003 22.0532 3.00003 24.7916C3.00003 27.53 5.21995 29.7499 7.95836 29.7499Z" stroke="#7A7A7A" stroke-width="2" stroke-linecap="round" stroke-linejoin="round"/>
<path d="M21.4167 8.50008C22.1991 8.50008 22.8333 7.86582 22.8333 7.08341C22.8333 6.30101 22.1991 5.66675 21.4167 5.66675C20.6343 5.66675 20 6.30101 20 7.08341C20 7.86582 20.6343 8.50008 21.4167 8.50008Z" stroke="#7A7A7A" stroke-width="2" stroke-linecap="round" stroke-linejoin="round"/>
<path d="M17.1667 24.7916V19.8333L12.9167 15.5833L18.5834 11.3333L21.4167 15.5833H24.25" stroke="#7A7A7A" stroke-width="2" stroke-linecap="round" stroke-linejoin="round"/>
</svg>
