<svg width="35" height="34" viewBox="0 0 35 34" fill="none" xmlns="http://www.w3.org/2000/svg">
<path d="M3.33334 8.50016C4.18334 9.2085 5.03334 9.91683 6.87501 9.91683C10.4167 9.91683 10.4167 7.0835 13.9583 7.0835C17.6417 7.0835 17.3583 9.91683 21.0417 9.91683C24.5833 9.91683 24.5833 7.0835 28.125 7.0835C29.9667 7.0835 30.8167 7.79183 31.6667 8.50016" stroke="#7A7A7A" stroke-width="2" stroke-linecap="round" stroke-linejoin="round"/>
<path d="M3.33334 17.0002C4.18334 17.7085 5.03334 18.4168 6.87501 18.4168C10.4167 18.4168 10.4167 15.5835 13.9583 15.5835C17.6417 15.5835 17.3583 18.4168 21.0417 18.4168C24.5833 18.4168 24.5833 15.5835 28.125 15.5835C29.9667 15.5835 30.8167 16.2918 31.6667 17.0002" stroke="#7A7A7A" stroke-width="2" stroke-linecap="round" stroke-linejoin="round"/>
<path d="M3.33334 25.5002C4.18334 26.2085 5.03334 26.9168 6.87501 26.9168C10.4167 26.9168 10.4167 24.0835 13.9583 24.0835C17.6417 24.0835 17.3583 26.9168 21.0417 26.9168C24.5833 26.9168 24.5833 24.0835 28.125 24.0835C29.9667 24.0835 30.8167 24.7918 31.6667 25.5002" stroke="#7A7A7A" stroke-width="2" stroke-linecap="round" stroke-linejoin="round"/>
</svg>
