<svg width="22" height="22" viewBox="0 0 22 22" fill="none" xmlns="http://www.w3.org/2000/svg">
<path d="M18.1177 9.05883C18.1177 14.8824 11 20.7059 11 20.7059C11 20.7059 3.88235 14.8824 3.88235 9.05883C3.88235 6.9995 4.63225 5.02452 5.96707 3.56835C7.30188 2.11219 9.11228 1.29412 11 1.29412C12.8877 1.29412 14.6981 2.11219 16.0329 3.56835C17.3678 5.02452 18.1177 6.9995 18.1177 9.05883Z" fill="#122B49" stroke="#122B49" stroke-width="2" stroke-linecap="round" stroke-linejoin="round"/>
<path d="M11 10.3529C12.0721 10.3529 12.9412 9.48385 12.9412 8.41177C12.9412 7.33968 12.0721 6.47059 11 6.47059C9.92793 6.47059 9.05884 7.33968 9.05884 8.41177C9.05884 9.48385 9.92793 10.3529 11 10.3529Z" fill="white" stroke="white" stroke-width="2" stroke-linecap="round" stroke-linejoin="round"/>
</svg>
