<svg width="35" height="34" viewBox="0 0 35 34" fill="none" xmlns="http://www.w3.org/2000/svg">
<path d="M9.33334 26.9166V7.08325" stroke="#7A7A7A" stroke-width="2" stroke-linecap="round" stroke-linejoin="round"/>
<path d="M15 26.9166V9.6333" stroke="#7A7A7A" stroke-width="2" stroke-linecap="round" stroke-linejoin="round"/>
<path d="M20.6667 26.9167V15.8667" stroke="#7A7A7A" stroke-width="2" stroke-linecap="round" stroke-linejoin="round"/>
<path d="M26.3333 7.08325V12.7499" stroke="#7A7A7A" stroke-width="2" stroke-linecap="round" stroke-linejoin="round"/>
<path d="M26.3333 26.9167V18.4167" stroke="#7A7A7A" stroke-width="2" stroke-linecap="round" stroke-linejoin="round"/>
<path d="M32 26.9167V12.75" stroke="#7A7A7A" stroke-width="2" stroke-linecap="round" stroke-linejoin="round"/>
<path d="M3.66669 26.9166V12.7499C3.66669 11.247 4.26371 9.80569 5.32642 8.74298C6.38912 7.68027 7.83046 7.08325 9.33335 7.08325C12.1667 7.08325 15 8.96742 17.8334 12.7499C20.6667 16.5324 23.5 18.4166 26.3334 18.4166C27.2797 18.4157 28.2108 18.1778 29.0416 17.7247C29.8723 17.2715 30.5764 16.6175 31.0895 15.8223C31.6026 15.0271 31.9084 14.1161 31.9789 13.1724C32.0495 12.2287 31.8826 11.2823 31.4934 10.4197C31.1043 9.55705 30.5053 8.80561 29.7511 8.23396C28.9969 7.6623 28.1116 7.28863 27.1759 7.14704C26.2402 7.00545 25.2839 7.10045 24.3944 7.42338C23.5048 7.74631 22.7103 8.28688 22.0834 8.99575" stroke="#7A7A7A" stroke-width="2" stroke-linecap="round" stroke-linejoin="round"/>
</svg>
