<svg width="20" height="20" viewBox="0 0 20 20" fill="none" xmlns="http://www.w3.org/2000/svg">
<g clip-path="url(#clip0_1_2290)">
<path d="M10.8333 5.00002C9.91286 5.00002 9.16667 4.25383 9.16667 3.33335C9.16667 2.41288 9.91286 1.66669 10.8333 1.66669C11.7538 1.66669 12.5 2.41288 12.5 3.33335C12.5 4.25383 11.7538 5.00002 10.8333 5.00002Z" stroke="#122B49" stroke-width="2" stroke-linecap="round" stroke-linejoin="round"/>
<path d="M4.99999 8.33333C4.07952 8.33333 3.33332 7.58714 3.33332 6.66667C3.33332 5.74619 4.07952 5 4.99999 5C5.92046 5 6.66666 5.74619 6.66666 6.66667C6.66666 7.58714 5.92046 8.33333 4.99999 8.33333Z" stroke="#122B49" stroke-width="2" stroke-linecap="round" stroke-linejoin="round"/>
<path d="M3.33333 15C2.41286 15 1.66667 14.2538 1.66667 13.3334C1.66667 12.4129 2.41286 11.6667 3.33333 11.6667C4.25381 11.6667 5 12.4129 5 13.3334C5 14.2538 4.25381 15 3.33333 15Z" stroke="#122B49" stroke-width="2" stroke-linecap="round" stroke-linejoin="round"/>
<path d="M12.5 8.33331C11.9528 8.33331 11.411 8.44109 10.9055 8.65048C10.4 8.85988 9.94064 9.16679 9.55373 9.5537C9.16682 9.94061 8.8599 10.3999 8.65051 10.9055C8.44111 11.411 8.33334 11.9528 8.33334 12.5V15.4166C8.33356 16.1137 8.58342 16.7876 9.03766 17.3163C9.49189 17.8451 10.1205 18.1936 10.8095 18.2989C11.4986 18.4042 12.2025 18.2592 12.7939 17.8902C13.3853 17.5212 13.825 16.9527 14.0333 16.2875C14.3889 15.1403 15.1389 14.3889 16.2833 14.0333C16.9482 13.8251 17.5165 13.3857 17.8855 12.7948C18.2545 12.2038 18.3998 11.5003 18.2951 10.8115C18.1904 10.1228 17.8426 9.49422 17.3146 9.03966C16.7866 8.58509 16.1134 8.33453 15.4167 8.33331H12.5Z" stroke="#122B49" stroke-width="2" stroke-linecap="round" stroke-linejoin="round"/>
</g>
<defs>
<clipPath id="clip0_1_2290">
<rect width="20" height="20" fill="white" transform="matrix(-1 0 0 1 20 0)"/>
</clipPath>
</defs>
</svg>
