<svg width="33" height="36" viewBox="0 0 33 36" fill="none" xmlns="http://www.w3.org/2000/svg">
<path d="M29.8333 12.5252V30.0002C29.8333 30.7959 29.5524 31.5589 29.0523 32.1215C28.5522 32.6841 27.8739 33.0002 27.1667 33.0002H5.83334C5.12609 33.0002 4.44782 32.6841 3.94772 32.1215C3.44762 31.5589 3.16667 30.7959 3.16667 30.0002V12.5252C3.16882 11.9269 3.32992 11.343 3.62929 10.8486C3.92865 10.3541 4.3526 9.97157 4.84667 9.75021L15.5133 4.95021C16.1469 4.66634 16.8531 4.66634 17.4867 4.95021L28.1533 9.75021C28.6474 9.97157 29.0714 10.3541 29.3707 10.8486C29.6701 11.343 29.8312 11.9269 29.8333 12.5252Z" stroke="#7A7A7A" stroke-width="2" stroke-linecap="round" stroke-linejoin="round"/>
<path d="M8.5 27H24.5" stroke="#7A7A7A" stroke-width="2" stroke-linecap="round" stroke-linejoin="round"/>
<path d="M8.5 21H24.5" stroke="#7A7A7A" stroke-width="2" stroke-linecap="round" stroke-linejoin="round"/>
<path d="M24.5 15H8.5V33H24.5V15Z" stroke="#7A7A7A" stroke-width="2" stroke-linecap="round" stroke-linejoin="round"/>
</svg>
