<svg width="22" height="22" viewBox="0 0 22 22" fill="none" xmlns="http://www.w3.org/2000/svg">
<path d="M7.33334 2.84155V6.41655C7.33334 7.38901 7.71965 8.32164 8.40729 9.00928C9.09492 9.69691 10.0275 10.0832 11 10.0832C11.9725 10.0832 12.9051 9.69691 13.5927 9.00928C14.2804 8.32164 14.6667 7.38901 14.6667 6.41655V2.84155" stroke="black" stroke-width="2" stroke-linecap="round" stroke-linejoin="round"/>
<path d="M8.25001 13.7499L7.33334 12.8333" stroke="black" stroke-width="2" stroke-linecap="round" stroke-linejoin="round"/>
<path d="M13.75 13.7499L14.6667 12.8333" stroke="black" stroke-width="2" stroke-linecap="round" stroke-linejoin="round"/>
<path d="M8.24999 17.4166C5.68332 17.4166 3.66666 15.3999 3.66666 12.8333V9.16658C3.66666 7.22166 4.43927 5.3564 5.81454 3.98114C7.18981 2.60587 9.05507 1.83325 11 1.83325C12.9449 1.83325 14.8102 2.60587 16.1854 3.98114C17.5607 5.3564 18.3333 7.22166 18.3333 9.16658V12.8333C18.3333 15.3999 16.3167 17.4166 13.75 17.4166H8.24999Z" stroke="black" stroke-width="2" stroke-linecap="round" stroke-linejoin="round"/>
<path d="M7.33333 17.4167L5.5 20.1667" stroke="black" stroke-width="2" stroke-linecap="round" stroke-linejoin="round"/>
<path d="M14.6667 17.4167L16.5 20.1667" stroke="black" stroke-width="2" stroke-linecap="round" stroke-linejoin="round"/>
</svg>
