<svg width="35" height="34" viewBox="0 0 35 34" fill="none" xmlns="http://www.w3.org/2000/svg">
<path d="M12.5417 20.5417C13.481 20.5417 14.3818 20.1685 15.046 19.5043C15.7102 18.8401 16.0833 17.9393 16.0833 17C16.0833 15.045 15.375 14.1667 14.6667 12.75C13.148 9.71408 14.3493 7.00683 17.5 4.25C18.2083 7.79167 20.3333 11.1917 23.1667 13.4583C26 15.725 27.4167 18.4167 27.4167 21.25C27.4167 22.5523 27.1602 23.8418 26.6618 25.0449C26.1634 26.2481 25.433 27.3413 24.5121 28.2621C23.5913 29.183 22.4981 29.9134 21.2949 30.4118C20.0918 30.9102 18.8023 31.1667 17.5 31.1667C16.1977 31.1667 14.9082 30.9102 13.7051 30.4118C12.5019 29.9134 11.4087 29.183 10.4879 28.2621C9.567 27.3413 8.83655 26.2481 8.33819 25.0449C7.83983 23.8418 7.58333 22.5523 7.58333 21.25C7.58333 19.6166 8.19674 18.0002 8.99999 17C8.99999 17.9393 9.37313 18.8401 10.0373 19.5043C10.7015 20.1685 11.6024 20.5417 12.5417 20.5417Z" stroke="#7A7A7A" stroke-width="2" stroke-linecap="round" stroke-linejoin="round"/>
</svg>
