<svg width="20" height="20" viewBox="0 0 20 20" fill="none" xmlns="http://www.w3.org/2000/svg">
<path d="M15 1.66663H4.99999C4.07952 1.66663 3.33333 2.41282 3.33333 3.33329V16.6666C3.33333 17.5871 4.07952 18.3333 4.99999 18.3333H15C15.9205 18.3333 16.6667 17.5871 16.6667 16.6666V3.33329C16.6667 2.41282 15.9205 1.66663 15 1.66663Z" stroke="#122B49" stroke-width="2" stroke-linecap="round" stroke-linejoin="round"/>
<path d="M7.5 18.3333V15H12.5V18.3333" stroke="#122B49" stroke-width="2" stroke-linecap="round" stroke-linejoin="round"/>
<path d="M6.66667 5H6.67501" stroke="#122B49" stroke-width="2" stroke-linecap="round" stroke-linejoin="round"/>
<path d="M13.3333 5H13.3417" stroke="#122B49" stroke-width="2" stroke-linecap="round" stroke-linejoin="round"/>
<path d="M10 5H10.0083" stroke="#122B49" stroke-width="2" stroke-linecap="round" stroke-linejoin="round"/>
<path d="M10 8.33337H10.0083" stroke="#122B49" stroke-width="2" stroke-linecap="round" stroke-linejoin="round"/>
<path d="M10 11.6666H10.0083" stroke="#122B49" stroke-width="2" stroke-linecap="round" stroke-linejoin="round"/>
<path d="M13.3333 8.33337H13.3417" stroke="#122B49" stroke-width="2" stroke-linecap="round" stroke-linejoin="round"/>
<path d="M13.3333 11.6666H13.3417" stroke="#122B49" stroke-width="2" stroke-linecap="round" stroke-linejoin="round"/>
<path d="M6.66667 8.33337H6.67501" stroke="#122B49" stroke-width="2" stroke-linecap="round" stroke-linejoin="round"/>
<path d="M6.66667 11.6666H6.67501" stroke="#122B49" stroke-width="2" stroke-linecap="round" stroke-linejoin="round"/>
</svg>
