<svg width="35" height="34" viewBox="0 0 35 34" fill="none" xmlns="http://www.w3.org/2000/svg">
<path d="M24.9167 29.75V26.9167C24.541 26.9167 24.1806 26.7674 23.9149 26.5017C23.6493 26.2361 23.5 25.8757 23.5 25.5V24.0833C23.5 23.3319 23.7985 22.6112 24.3299 22.0799C24.8612 21.5485 25.5819 21.25 26.3333 21.25H29.1667C29.9181 21.25 30.6388 21.5485 31.1702 22.0799C31.7015 22.6112 32 23.3319 32 24.0833V25.5C32 25.8757 31.8508 26.2361 31.5851 26.5017C31.3194 26.7674 30.9591 26.9167 30.5833 26.9167" stroke="#7A7A7A" stroke-width="2" stroke-linecap="round" stroke-linejoin="round"/>
<path d="M27.75 21.25V9.20833C27.75 7.8933 27.2276 6.63213 26.2977 5.70226C25.3679 4.77239 24.1067 4.25 22.7917 4.25C21.4766 4.25 20.2155 4.77239 19.2856 5.70226C18.3557 6.63213 17.8333 7.8933 17.8333 9.20833V24.7917C17.8333 26.1067 17.3109 27.3679 16.3811 28.2977C15.4512 29.2276 14.19 29.75 12.875 29.75C11.56 29.75 10.2988 29.2276 9.36893 28.2977C8.43907 27.3679 7.91667 26.1067 7.91667 24.7917V12.75" stroke="#7A7A7A" stroke-width="2" stroke-linecap="round" stroke-linejoin="round"/>
<path d="M30.5833 29.75V26.9166H24.9167" stroke="#7A7A7A" stroke-width="2" stroke-linecap="round" stroke-linejoin="round"/>
<path d="M5.08334 7.08333H10.75V4.25" stroke="#7A7A7A" stroke-width="2" stroke-linecap="round" stroke-linejoin="round"/>
<path d="M10.75 7.08333C11.1257 7.08333 11.4861 7.23259 11.7517 7.49827C12.0174 7.76394 12.1667 8.12428 12.1667 8.5V9.91667C12.1667 10.6681 11.8682 11.3888 11.3368 11.9201C10.8055 12.4515 10.0848 12.75 9.33334 12.75H6.50001C5.74856 12.75 5.02789 12.4515 4.49654 11.9201C3.96518 11.3888 3.66667 10.6681 3.66667 9.91667V8.5C3.66667 8.12428 3.81593 7.76394 4.0816 7.49827C4.34728 7.23259 4.70762 7.08333 5.08334 7.08333V4.25" stroke="#7A7A7A" stroke-width="2" stroke-linecap="round" stroke-linejoin="round"/>
</svg>
