<svg width="35" height="34" viewBox="0 0 35 34" fill="none" xmlns="http://www.w3.org/2000/svg">
<path d="M20.9 20.4001L14.1 13.6001" stroke="#7A7A7A" stroke-width="2" stroke-linecap="round" stroke-linejoin="round"/>
<path d="M26.9308 30.4371C26.3995 30.9686 25.6788 31.2673 24.9274 31.2674C24.1759 31.2675 23.4552 30.9691 22.9237 30.4379C22.3922 29.9066 22.0936 29.1859 22.0935 28.4345C22.0933 27.683 22.3917 26.9623 22.923 26.4308L20.4198 28.9355C19.8883 29.4669 19.1675 29.7655 18.4159 29.7655C17.6643 29.7655 16.9435 29.4669 16.412 28.9355C15.8805 28.404 15.582 27.6832 15.582 26.9316C15.582 26.18 15.8805 25.4592 16.412 24.9277L25.4277 15.9121C25.9591 15.3806 26.6799 15.082 27.4315 15.082C28.1831 15.082 28.904 15.3806 29.4354 15.9121C29.9669 16.4435 30.2655 17.1643 30.2655 17.9159C30.2655 18.6675 29.9669 19.3884 29.4354 19.9198L26.9308 22.4231C27.4622 21.8918 28.183 21.5934 28.9344 21.5935C29.6859 21.5937 30.4065 21.8923 30.9378 22.4238C31.4691 22.9552 31.7675 23.676 31.7673 24.4274C31.7672 25.1789 31.4685 25.8995 30.9371 26.4308L26.9308 30.4371Z" stroke="#7A7A7A" stroke-width="2" stroke-linecap="round" stroke-linejoin="round"/>
<path d="M30.9583 30.4584L28.975 28.4751" stroke="#7A7A7A" stroke-width="2" stroke-linecap="round" stroke-linejoin="round"/>
<path d="M6.02502 5.52508L4.04169 3.54175" stroke="#7A7A7A" stroke-width="2" stroke-linecap="round" stroke-linejoin="round"/>
<path d="M9.57232 18.088C9.04086 18.6194 8.32005 18.918 7.56845 18.918C6.81685 18.918 6.09603 18.6194 5.56457 18.088C5.03311 17.5565 4.73454 16.8357 4.73454 16.0841C4.73454 15.3325 5.03311 14.6117 5.56457 14.0802L8.06924 11.577C7.80609 11.84 7.4937 12.0487 7.14991 12.191C6.80612 12.3334 6.43766 12.4066 6.06557 12.4065C5.31411 12.4064 4.59347 12.1077 4.0622 11.5763C3.79914 11.3131 3.59049 11.0007 3.44815 10.6569C3.30582 10.3132 3.2326 9.9447 3.23267 9.57261C3.2328 8.82115 3.53145 8.10051 4.06291 7.56924L8.06924 3.56291C8.60051 3.03145 9.32115 2.7328 10.0726 2.73267C10.4447 2.7326 10.8132 2.80582 11.1569 2.94815C11.5007 3.09049 11.8131 3.29914 12.0763 3.5622C12.3394 3.82526 12.5482 4.13757 12.6906 4.48131C12.8331 4.82505 12.9065 5.19348 12.9065 5.56557C12.9066 5.93766 12.8334 6.30612 12.691 6.64991C12.5487 6.9937 12.34 7.30609 12.077 7.56924L14.5802 5.06457C15.1117 4.53311 15.8325 4.23454 16.5841 4.23454C17.3357 4.23454 18.0565 4.53311 18.588 5.06457C19.1194 5.59603 19.418 6.31685 19.418 7.06845C19.418 7.82005 19.1194 8.54086 18.588 9.07232L9.57232 18.088Z" stroke="#7A7A7A" stroke-width="2" stroke-linecap="round" stroke-linejoin="round"/>
</svg>
