<svg width="35" height="34" viewBox="0 0 35 34" fill="none" xmlns="http://www.w3.org/2000/svg">
<path d="M3.66669 9.91659L9.91419 3.66909C10.1778 3.40393 10.4912 3.19356 10.8365 3.05011C11.1817 2.90666 11.552 2.83296 11.9259 2.83325H23.7409C24.1147 2.83296 24.485 2.90666 24.8302 3.05011C25.1755 3.19356 25.4889 3.40393 25.7525 3.66909L32 9.91659" stroke="#7A7A7A" stroke-width="2" stroke-linecap="round" stroke-linejoin="round"/>
<path d="M6.5 17V28.3333C6.5 29.0848 6.79851 29.8054 7.32986 30.3368C7.86122 30.8682 8.58189 31.1667 9.33333 31.1667H26.3333C27.0848 31.1667 27.8054 30.8682 28.3368 30.3368C28.8682 29.8054 29.1667 29.0848 29.1667 28.3333V17" stroke="#7A7A7A" stroke-width="2" stroke-linecap="round" stroke-linejoin="round"/>
<path d="M22.0833 31.1667V25.5001C22.0833 24.7486 21.7848 24.028 21.2535 23.4966C20.7221 22.9653 20.0015 22.6667 19.25 22.6667H16.4167C15.6652 22.6667 14.9446 22.9653 14.4132 23.4966C13.8819 24.028 13.5833 24.7486 13.5833 25.5001V31.1667" stroke="#7A7A7A" stroke-width="2" stroke-linecap="round" stroke-linejoin="round"/>
<path d="M3.66669 9.91675H32" stroke="#7A7A7A" stroke-width="2" stroke-linecap="round" stroke-linejoin="round"/>
<path d="M32 9.91675V14.1667C32 14.9182 31.7015 15.6389 31.1702 16.1702C30.6388 16.7016 29.9181 17.0001 29.1667 17.0001C28.339 16.9545 27.5485 16.6413 26.9142 16.1076C26.7452 15.9854 26.5419 15.9197 26.3334 15.9197C26.1248 15.9197 25.9216 15.9854 25.7525 16.1076C25.1182 16.6413 24.3277 16.9545 23.5 17.0001C22.6723 16.9545 21.8818 16.6413 21.2475 16.1076C21.0785 15.9854 20.8752 15.9197 20.6667 15.9197C20.4581 15.9197 20.2549 15.9854 20.0859 16.1076C19.4516 16.6413 18.6611 16.9545 17.8334 17.0001C17.0056 16.9545 16.2151 16.6413 15.5809 16.1076C15.4118 15.9854 15.2086 15.9197 15 15.9197C14.7915 15.9197 14.5882 15.9854 14.4192 16.1076C13.7849 16.6413 12.9944 16.9545 12.1667 17.0001C11.339 16.9545 10.5485 16.6413 9.91419 16.1076C9.74515 15.9854 9.54191 15.9197 9.33335 15.9197C9.1248 15.9197 8.92156 15.9854 8.75252 16.1076C8.11824 16.6413 7.32773 16.9545 6.50002 17.0001C5.74857 17.0001 5.0279 16.7016 4.49655 16.1702C3.9652 15.6389 3.66669 14.9182 3.66669 14.1667V9.91675" stroke="#7A7A7A" stroke-width="2" stroke-linecap="round" stroke-linejoin="round"/>
</svg>
