<svg width="20" height="20" viewBox="0 0 20 20" fill="none" xmlns="http://www.w3.org/2000/svg">
<path d="M10 17.5C11.9891 17.5 13.8968 16.7098 15.3033 15.3033C16.7098 13.8968 17.5 11.9891 17.5 10H2.5C2.5 11.9891 3.29018 13.8968 4.6967 15.3033C6.10322 16.7098 8.01088 17.5 10 17.5Z" stroke="#122B49" stroke-width="2" stroke-linecap="round" stroke-linejoin="round"/>
<path d="M5.83333 17.5H14.1667" stroke="#122B49" stroke-width="2" stroke-linecap="round" stroke-linejoin="round"/>
<path d="M16.25 10L18.3333 5" stroke="#122B49" stroke-width="2" stroke-linecap="round" stroke-linejoin="round"/>
<path d="M13.5417 2.5C13.7667 2.58333 14.2083 2.94167 14.1667 3.63333C14.1167 4.325 13.3917 4.63333 13.3333 5.31667C13.2917 5.96667 13.6167 6.35 13.9417 6.66667" stroke="#122B49" stroke-width="2" stroke-linecap="round" stroke-linejoin="round"/>
<path d="M9.37499 2.5C9.59999 2.58333 10.0417 2.94167 9.99166 3.63333C9.94999 4.325 9.21666 4.63333 9.17499 5.31667C9.12499 5.96667 9.44999 6.35 9.77499 6.66667" stroke="#122B49" stroke-width="2" stroke-linecap="round" stroke-linejoin="round"/>
<path d="M5.20834 2.5C5.43334 2.58333 5.875 2.94167 5.83334 3.63333C5.78334 4.325 5.05834 4.63333 5 5.31667C4.95834 5.96667 5.28334 6.35 5.61667 6.66667" stroke="#122B49" stroke-width="2" stroke-linecap="round" stroke-linejoin="round"/>
</svg>
