<svg width="36" height="34" viewBox="0 0 36 34" fill="none" xmlns="http://www.w3.org/2000/svg">
<g clip-path="url(#clip0_22_2492)">
<path d="M26.5052 19.9487H32.4573C32.7366 19.9489 33.0111 20.0194 33.255 20.1536C33.4988 20.2878 33.7039 20.4813 33.8506 20.7156C33.9974 20.9499 34.081 21.2174 34.0936 21.4925C34.1062 21.7677 34.0472 22.0415 33.9224 22.2879L30.5891 28.8655C30.4627 29.1148 30.2731 29.3276 30.0388 29.4832C29.8044 29.6389 29.5332 29.7321 29.2516 29.7539C28.9699 29.7757 28.6873 29.7253 28.4312 29.6076C28.1751 29.4899 27.9543 29.3089 27.79 29.0821L24.3092 24.281" stroke="#7A7A7A" stroke-width="2" stroke-linecap="round" stroke-linejoin="round"/>
<path d="M27.0884 15.1852C27.4768 15.377 27.7722 15.713 27.9095 16.1195C28.0469 16.526 28.015 16.9696 27.821 17.353L22.7308 27.3932C22.6346 27.5832 22.5013 27.7525 22.3386 27.8916C22.176 28.0307 21.9872 28.1369 21.7829 28.204C21.5787 28.2711 21.3631 28.2978 21.1484 28.2827C20.9336 28.2676 20.724 28.2109 20.5315 28.1158L4.97108 20.4341C3.84085 19.8725 2.98215 18.8922 2.58288 17.7076C2.18361 16.5231 2.27629 15.2307 2.84063 14.1134L5.10219 9.60329C5.38406 9.04918 5.77384 8.55526 6.24925 8.14976C6.72466 7.74425 7.2764 7.4351 7.87295 7.23995C8.4695 7.0448 9.09919 6.96748 9.72603 7.01241C10.3529 7.05734 10.9646 7.22363 11.5263 7.5018L27.0884 15.1852Z" stroke="#7A7A7A" stroke-width="2" stroke-linecap="round" stroke-linejoin="round"/>
<path d="M2.33334 31.2644H8.49526C9.10609 31.2685 9.70595 31.1043 10.2272 30.7901C10.7484 30.4759 11.1702 30.0243 11.4451 29.4862L13.805 24.7982" stroke="#7A7A7A" stroke-width="2" stroke-linecap="round" stroke-linejoin="round"/>
<path d="M2.33334 34.4973V28.0311" stroke="#7A7A7A" stroke-width="2" stroke-linecap="round" stroke-linejoin="round"/>
<path d="M10.5417 12.75H10.5558" stroke="#7A7A7A" stroke-width="2" stroke-linecap="round" stroke-linejoin="round"/>
</g>
<defs>
<clipPath id="clip0_22_2492">
<rect width="35" height="34" fill="white" transform="translate(0.333344)"/>
</clipPath>
</defs>
</svg>
