<svg width="33" height="34" viewBox="0 0 33 34" fill="none" xmlns="http://www.w3.org/2000/svg">
<path d="M24.5 2.83337H8.50001C7.02725 2.83337 5.83334 4.1019 5.83334 5.66671V28.3334C5.83334 29.8982 7.02725 31.1667 8.50001 31.1667H24.5C25.9728 31.1667 27.1667 29.8982 27.1667 28.3334V5.66671C27.1667 4.1019 25.9728 2.83337 24.5 2.83337Z" stroke="#7A7A7A" stroke-width="2" stroke-linecap="round" stroke-linejoin="round"/>
<path d="M16.5 8.5H16.5133" stroke="#7A7A7A" stroke-width="2" stroke-linecap="round" stroke-linejoin="round"/>
<path d="M16.5 25.5C19.4455 25.5 21.8333 22.9629 21.8333 19.8333C21.8333 16.7037 19.4455 14.1666 16.5 14.1666C13.5545 14.1666 11.1667 16.7037 11.1667 19.8333C11.1667 22.9629 13.5545 25.5 16.5 25.5Z" stroke="#7A7A7A" stroke-width="2" stroke-linecap="round" stroke-linejoin="round"/>
<path d="M16.5 19.8334H16.5133" stroke="#7A7A7A" stroke-width="2" stroke-linecap="round" stroke-linejoin="round"/>
</svg>
