<svg width="33" height="36" viewBox="0 0 33 36" fill="none" xmlns="http://www.w3.org/2000/svg">
<path d="M29.8333 12.525V30C29.8333 30.7956 29.5524 31.5587 29.0523 32.1213C28.5522 32.6839 27.8739 33 27.1667 33H5.83333C5.12609 33 4.44781 32.6839 3.94772 32.1213C3.44762 31.5587 3.16667 30.7956 3.16667 30V12.525C3.16881 11.9267 3.32992 11.3428 3.62928 10.8483C3.92865 10.3538 4.3526 9.97133 4.84667 9.74997L15.5133 4.94997C16.1469 4.66609 16.8531 4.66609 17.4867 4.94997L28.1533 9.74997C28.6474 9.97133 29.0714 10.3538 29.3707 10.8483C29.6701 11.3428 29.8312 11.9267 29.8333 12.525Z" stroke="#7A7A7A" stroke-width="2" stroke-linecap="round" stroke-linejoin="round"/>
<path d="M8.5 27H24.5" stroke="#7A7A7A" stroke-width="2" stroke-linecap="round" stroke-linejoin="round"/>
<path d="M8.5 21H24.5" stroke="#7A7A7A" stroke-width="2" stroke-linecap="round" stroke-linejoin="round"/>
<path d="M24.5 15H8.5V33H24.5V15Z" stroke="#7A7A7A" stroke-width="2" stroke-linecap="round" stroke-linejoin="round"/>
</svg>
