<svg width="20" height="20" viewBox="0 0 20 20" fill="none" xmlns="http://www.w3.org/2000/svg">
<path d="M1.66666 16.6666V9.99998C1.66666 9.55795 1.84225 9.13403 2.15481 8.82147C2.46737 8.50891 2.8913 8.33331 3.33332 8.33331H16.6667C17.1087 8.33331 17.5326 8.50891 17.8452 8.82147C18.1577 9.13403 18.3333 9.55795 18.3333 9.99998V16.6666" stroke="#122B49" stroke-width="2" stroke-linecap="round" stroke-linejoin="round"/>
<path d="M3.33334 8.33331V4.99998C3.33334 4.55795 3.50894 4.13403 3.8215 3.82147C4.13406 3.50891 4.55798 3.33331 5.00001 3.33331H15C15.442 3.33331 15.866 3.50891 16.1785 3.82147C16.4911 4.13403 16.6667 4.55795 16.6667 4.99998V8.33331" stroke="#122B49" stroke-width="2" stroke-linecap="round" stroke-linejoin="round"/>
<path d="M10 3.33331V8.33331" stroke="#122B49" stroke-width="2" stroke-linecap="round" stroke-linejoin="round"/>
<path d="M1.66666 15H18.3333" stroke="#122B49" stroke-width="2" stroke-linecap="round" stroke-linejoin="round"/>
</svg>
