<svg width="35" height="34" viewBox="0 0 35 34" fill="none" xmlns="http://www.w3.org/2000/svg">
<path d="M3.66668 9.91683L9.91418 3.66933C10.1778 3.40418 10.4912 3.19381 10.8365 3.05036C11.1817 2.9069 11.552 2.8332 11.9258 2.8335H23.7408C24.1147 2.8332 24.485 2.9069 24.8302 3.05036C25.1755 3.19381 25.4889 3.40418 25.7525 3.66933L32 9.91683" stroke="#7A7A7A" stroke-width="2" stroke-linecap="round" stroke-linejoin="round"/>
<path d="M6.50001 17V28.3333C6.50001 29.0848 6.79852 29.8054 7.32988 30.3368C7.86123 30.8682 8.5819 31.1667 9.33334 31.1667H26.3333C27.0848 31.1667 27.8055 30.8682 28.3368 30.3368C28.8682 29.8054 29.1667 29.0848 29.1667 28.3333V17" stroke="#7A7A7A" stroke-width="2" stroke-linecap="round" stroke-linejoin="round"/>
<path d="M22.0833 31.1665V25.4998C22.0833 24.7484 21.7848 24.0277 21.2535 23.4964C20.7221 22.965 20.0015 22.6665 19.25 22.6665H16.4167C15.6652 22.6665 14.9446 22.965 14.4132 23.4964C13.8819 24.0277 13.5833 24.7484 13.5833 25.4998V31.1665" stroke="#7A7A7A" stroke-width="2" stroke-linecap="round" stroke-linejoin="round"/>
<path d="M3.66668 9.9165H32" stroke="#7A7A7A" stroke-width="2" stroke-linecap="round" stroke-linejoin="round"/>
<path d="M32 9.9165V14.1665C32 14.918 31.7015 15.6386 31.1701 16.17C30.6388 16.7013 29.9181 16.9998 29.1667 16.9998C28.339 16.9543 27.5485 16.6411 26.9142 16.1073C26.7451 15.9852 26.5419 15.9194 26.3333 15.9194C26.1248 15.9194 25.9215 15.9852 25.7525 16.1073C25.1182 16.6411 24.3277 16.9543 23.5 16.9998C22.6723 16.9543 21.8818 16.6411 21.2475 16.1073C21.0785 15.9852 20.8752 15.9194 20.6667 15.9194C20.4581 15.9194 20.2549 15.9852 20.0858 16.1073C19.4516 16.6411 18.6611 16.9543 17.8333 16.9998C17.0056 16.9543 16.2151 16.6411 15.5808 16.1073C15.4118 15.9852 15.2086 15.9194 15 15.9194C14.7915 15.9194 14.5882 15.9852 14.4192 16.1073C13.7849 16.6411 12.9944 16.9543 12.1667 16.9998C11.339 16.9543 10.5485 16.6411 9.91418 16.1073C9.74514 15.9852 9.5419 15.9194 9.33334 15.9194C9.12479 15.9194 8.92155 15.9852 8.75251 16.1073C8.11823 16.6411 7.32772 16.9543 6.50001 16.9998C5.74856 16.9998 5.02789 16.7013 4.49654 16.17C3.96519 15.6386 3.66668 14.918 3.66668 14.1665V9.9165" stroke="#7A7A7A" stroke-width="2" stroke-linecap="round" stroke-linejoin="round"/>
</svg>
