<svg width="14" height="15" viewBox="0 0 14 15" fill="none" xmlns="http://www.w3.org/2000/svg">
<path d="M12 6.21439C12 10.0715 7 13.9287 7 13.9287C7 13.9287 2 10.0715 2 6.21439C2 4.85042 2.52678 3.54231 3.46447 2.57784C4.40215 1.61337 5.67392 1.07153 7 1.07153C8.32608 1.07153 9.59785 1.61337 10.5355 2.57784C11.4732 3.54231 12 4.85042 12 6.21439Z" fill="#122B49" stroke="#122B49" stroke-width="2" stroke-linecap="round" stroke-linejoin="round"/>
<path d="M7 7.05892C7.68224 7.05892 8.2353 6.46636 8.2353 5.73539C8.2353 5.00443 7.68224 4.41187 7 4.41187C6.31777 4.41187 5.76471 5.00443 5.76471 5.73539C5.76471 6.46636 6.31777 7.05892 7 7.05892Z" fill="white" stroke="white" stroke-width="2" stroke-linecap="round" stroke-linejoin="round"/>
</svg>
