<svg width="35" height="34" viewBox="0 0 35 34" fill="none" xmlns="http://www.w3.org/2000/svg">
<path d="M9.33334 26.9168V7.0835" stroke="#7A7A7A" stroke-width="2" stroke-linecap="round" stroke-linejoin="round"/>
<path d="M15 26.9166V9.6333" stroke="#7A7A7A" stroke-width="2" stroke-linecap="round" stroke-linejoin="round"/>
<path d="M20.6667 26.9167V15.8667" stroke="#7A7A7A" stroke-width="2" stroke-linecap="round" stroke-linejoin="round"/>
<path d="M26.3333 7.0835V12.7502" stroke="#7A7A7A" stroke-width="2" stroke-linecap="round" stroke-linejoin="round"/>
<path d="M26.3333 26.9165V18.4165" stroke="#7A7A7A" stroke-width="2" stroke-linecap="round" stroke-linejoin="round"/>
<path d="M32 26.9167V12.75" stroke="#7A7A7A" stroke-width="2" stroke-linecap="round" stroke-linejoin="round"/>
<path d="M3.66668 26.9168V12.7502C3.66668 11.2473 4.2637 9.80593 5.3264 8.74322C6.38911 7.68052 7.83045 7.0835 9.33334 7.0835C12.1667 7.0835 15 8.96766 17.8333 12.7502C20.6667 16.5327 23.5 18.4168 26.3333 18.4168C27.2797 18.4159 28.2107 18.1781 29.0415 17.7249C29.8723 17.2717 30.5764 16.6177 31.0895 15.8225C31.6026 15.0274 31.9084 14.1163 31.9789 13.1726C32.0495 12.2289 31.8826 11.2826 31.4934 10.4199C31.1042 9.55729 30.5052 8.80586 29.7511 8.2342C28.9969 7.66255 28.1115 7.28887 27.1758 7.14728C26.2402 7.00569 25.2839 7.1007 24.3943 7.42363C23.5048 7.74655 22.7103 8.28712 22.0833 8.996" stroke="#7A7A7A" stroke-width="2" stroke-linecap="round" stroke-linejoin="round"/>
</svg>
