<svg width="35" height="34" viewBox="0 0 35 34" fill="none" xmlns="http://www.w3.org/2000/svg">
<path d="M3.33331 8.49992C4.18331 9.20825 5.03331 9.91659 6.87498 9.91659C10.4166 9.91659 10.4166 7.08325 13.9583 7.08325C17.6416 7.08325 17.3583 9.91659 21.0416 9.91659C24.5833 9.91659 24.5833 7.08325 28.125 7.08325C29.9666 7.08325 30.8166 7.79159 31.6666 8.49992" stroke="#7A7A7A" stroke-width="2" stroke-linecap="round" stroke-linejoin="round"/>
<path d="M3.33331 16.9999C4.18331 17.7083 5.03331 18.4166 6.87498 18.4166C10.4166 18.4166 10.4166 15.5833 13.9583 15.5833C17.6416 15.5833 17.3583 18.4166 21.0416 18.4166C24.5833 18.4166 24.5833 15.5833 28.125 15.5833C29.9666 15.5833 30.8166 16.2916 31.6666 16.9999" stroke="#7A7A7A" stroke-width="2" stroke-linecap="round" stroke-linejoin="round"/>
<path d="M3.33331 25.4999C4.18331 26.2083 5.03331 26.9166 6.87498 26.9166C10.4166 26.9166 10.4166 24.0833 13.9583 24.0833C17.6416 24.0833 17.3583 26.9166 21.0416 26.9166C24.5833 26.9166 24.5833 24.0833 28.125 24.0833C29.9666 24.0833 30.8166 24.7916 31.6666 25.4999" stroke="#7A7A7A" stroke-width="2" stroke-linecap="round" stroke-linejoin="round"/>
</svg>
