<svg width="88" height="87" viewBox="0 0 88 87" fill="none" xmlns="http://www.w3.org/2000/svg">
<circle cx="44" cy="43.374" r="43.374" fill="#FF6E6E" fill-opacity="0.24"/>
<path d="M59.8934 39.2874C59.8934 51.5029 43.7597 63.7185 43.7597 63.7185C43.7597 63.7185 27.626 51.5029 27.626 39.2874C27.626 34.9677 29.3258 30.8249 32.3514 27.7705C35.3771 24.716 39.4808 23 43.7597 23C48.0386 23 52.1423 24.716 55.168 27.7705C58.1936 30.8249 59.8934 34.9677 59.8934 39.2874Z" fill="#EF5C5C" stroke="#EF5C5C" stroke-width="2" stroke-linecap="round" stroke-linejoin="round"/>
<path d="M55.5095 39.3256C55.4616 48.1549 43.6531 56.9205 43.6531 56.9205C43.6531 56.9205 31.9401 48.0275 31.988 39.1982C32.0049 36.0759 33.2602 33.0883 35.4777 30.8925C37.6952 28.6967 40.6934 27.4726 43.8125 27.4895C46.9316 27.5064 49.9163 28.7629 52.1099 30.9826C54.3035 33.2023 55.5264 36.2034 55.5095 39.3256Z" fill="white" stroke="#EF5C5C" stroke-width="2" stroke-linecap="round" stroke-linejoin="round"/>
<g clip-path="url(#clip0_1_2512)">
<path d="M38.3041 37.3256L43.7781 33.0681L49.252 37.3256V44.016C49.252 44.3386 49.1239 44.648 48.8957 44.8762C48.6676 45.1043 48.3582 45.2324 48.0356 45.2324H39.5206C39.198 45.2324 38.8885 45.1043 38.6604 44.8762C38.4323 44.648 38.3041 44.3386 38.3041 44.016V37.3256Z" stroke="#EF5C5C" stroke-width="2.4" stroke-linecap="round" stroke-linejoin="round"/>
<path d="M41.9534 45.2323V39.1501H45.6027V45.2323" stroke="#EF5C5C" stroke-width="2.4" stroke-linecap="round" stroke-linejoin="round"/>
</g>
<defs>
<clipPath id="clip0_1_2512">
<rect width="14.5972" height="14.5972" fill="white" transform="translate(36.4795 31.8516)"/>
</clipPath>
</defs>
</svg>
